<svg width="256" height="256" viewBox="0 0 256 256" version="1.1" xmlns="http://www.w3.org/2000/svg" xmlns:xlink="http://www.w3.org/1999/xlink">
<title>custom-projects-icon</title>
<desc>Created using Figma</desc>
<g id="Canvas" transform="translate(418 2)">
<clipPath id="clip-0" clip-rule="evenodd">
<path d="M -418 -2L -162 -2L -162 254L -418 254L -418 -2Z" fill="#FFFFFF"/>
</clipPath>
<g id="custom-projects-icon" clip-path="url(#clip-0)">
<g id="Vector">
<use xlink:href="#path0_fill" transform="translate(-408 8)" fill="#4F4F4F"/>
<use xlink:href="#path1_fill" transform="translate(-408 8)" fill="#4F4F4F"/>
<use xlink:href="#path2_fill" transform="translate(-408 8)" fill="#4F4F4F"/>
<use xlink:href="#path3_fill" transform="translate(-408 8)" fill="#4F4F4F"/>
<use xlink:href="#path4_fill" transform="translate(-408 8)" fill="#4F4F4F"/>
</g>
</g>
</g>
<defs>
<path id="path0_fill" d="M 10.212 126.639C 5.98776 130.665 8.83661 137.831 14.7308 137.831C 30.4488 137.635 45.6755 140.678 45.6755 140.678C 45.6755 140.678 67.9754 110.539 93.91 79.1235C 53.731 90.6098 25.3405 112.502 10.212 126.639Z"/>
<path id="path1_fill" d="M 156.683 141.856C 125.248 167.774 95.0888 190.06 95.0888 190.06C 95.0888 190.06 98.3306 205.276 97.9377 220.984C 97.8394 226.973 105.011 229.82 109.137 225.5C 123.381 210.48 145.288 182.107 156.683 141.856Z"/>
<path id="path2_fill" d="M 76.3255 179.948C 71.7083 182.991 66.993 185.74 62.0811 188.292L 33.1012 202.724L 47.542 173.763C 49.998 168.756 52.7486 164.044 55.8922 159.528L 45.6755 149.317L 1.76352 219.708C -2.36244 226.384 1.86176 231.391 3.23707 232.765C 4.61239 234.139 9.62253 238.361 16.3027 234.238L 86.7387 190.354L 76.3255 179.948Z"/>
<path id="path3_fill" d="M 115.522 126.836L 122.104 113.779L 109.038 120.356C 84.7738 132.432 65.0282 152.165 52.945 176.413L 46.3632 189.471L 59.4287 182.893C 83.6933 170.818 103.439 151.085 115.522 126.836Z"/>
<path id="path4_fill" fill-rule="evenodd" d="M 135.366 32.7857C 172.794 -4.61842 207.374 -2.45862 232.817 3.13727C 238.515 28.466 240.578 63.1213 203.15 100.525C 165.721 137.929 95.187 190.158 95.187 190.158L 70.4313 165.418L 45.6755 140.678C 45.6755 140.678 97.9377 70.1898 135.366 32.7857ZM 192.54 81.087C 182.123 91.4972 165.234 91.4972 154.817 81.087C 144.4 70.6768 144.4 53.7986 154.817 43.3884C 165.234 32.9782 182.123 32.9782 192.54 43.3884C 202.957 53.7986 202.957 70.6768 192.54 81.087Z"/>
</defs>
</svg>
