<svg width="256" height="256" viewBox="0 0 256 256" version="1.1" xmlns="http://www.w3.org/2000/svg" xmlns:xlink="http://www.w3.org/1999/xlink">
<title>drupal-icon</title>
<desc>Created using Figma</desc>
<g id="Canvas" transform="translate(-249 378)">
<clipPath id="clip-0" clip-rule="evenodd">
<path d="M 249 -378L 505 -378L 505 -122L 249 -122L 249 -378Z" fill="#FFFFFF"/>
</clipPath>
<g id="drupal-icon" clip-path="url(#clip-0)">
<g id="drupal 8 logo isolated">
<g id="Group">
<g id="Group">
<g id="Vector">
<use xlink:href="#path0_fill" transform="translate(330.309 -219.495)" fill="#4F4F4F"/>
</g>
</g>
<g id="Group">
<g id="Vector">
<use xlink:href="#path1_fill" transform="translate(410.482 -289.933)" fill="#4F4F4F"/>
</g>
</g>
<g id="Group">
<g id="Vector">
<use xlink:href="#path2_fill" transform="translate(375.301 -309.248)" fill="#4F4F4F"/>
</g>
</g>
<g id="Group">
<g id="Vector">
<use xlink:href="#path3_fill" transform="translate(264 -378)" fill="#4F4F4F"/>
</g>
</g>
</g>
</g>
</g>
</g>
<defs>
<path id="path0_fill" d="M 40.3928 0C 18.0886 0 -1.16954e-06 18.0886 -1.16954e-06 40.3928C -1.16954e-06 62.697 18.0886 80.7856 40.3928 80.7856C 62.697 80.7856 80.7856 62.697 80.7856 40.3928C 80.7856 18.0886 62.697 0 40.3928 0Z"/>
<path id="path1_fill" d="M 10.5006 62.697C 22.4575 75.1904 29.8156 92.1293 29.8156 110.831C 29.8156 134.515 18.012 155.363 5.84768e-07 167.933C 33.3413 157.662 60.9341 132.599 73.2743 102.247C 90.3665 60.2443 74.4239 28.6659 47.7509 4.67814e-06C 48.594 3.67905 49.0539 7.58803 49.0539 11.497C 48.9772 35.8707 32.7281 56.3353 10.5006 62.697Z"/>
<path id="path2_fill" d="M -5.84768e-07 30.8886C -5.84768e-07 47.9808 13.8731 61.7772 30.8886 61.7772C 47.9042 61.7772 61.8539 47.9042 61.8539 30.8886C 61.8539 13.7964 47.9808 -4.67814e-06 30.9653 -4.67814e-06C 13.9497 -4.67814e-06 -5.84768e-07 13.7964 -5.84768e-07 30.8886Z"/>
<path id="path3_fill" d="M 53.4325 243.737C 43.2385 231.626 37.1068 215.99 37.1068 198.898C 37.1068 163.257 63.8565 133.902 98.4241 129.84C 92.5223 121.255 88.9966 110.831 88.9966 99.6407C 88.9966 70.2084 112.834 46.4479 142.266 46.4479C 144.719 46.4479 147.095 46.6012 149.394 46.9078C 131.995 31.885 114.597 16.6323 100.877 -2.33907e-06C 107.852 72.9677 34.4241 46.4479 7.21454 113.744C -10.9507 158.812 5.45167 214.534 53.4325 243.737Z"/>
</defs>
</svg>
