<svg width="346" height="112" viewBox="0 0 346 112" version="1.1" xmlns="http://www.w3.org/2000/svg" xmlns:xlink="http://www.w3.org/1999/xlink">
<title>rob-lindsey-design-wordmark</title>
<desc>Created using Figma</desc>
<g id="Canvas" transform="translate(188 298)">
<g id="rob-lindsey-design-wordmark">
<use xlink:href="#path0_fill" transform="translate(-187.464 -297.824)" fill="#FFFFFF"/>
<use xlink:href="#path1_fill" transform="translate(-187.464 -297.824)" fill="#FFFFFF"/>
<use xlink:href="#path2_fill" transform="translate(-187.464 -297.824)" fill="#FFFFFF"/>
<use xlink:href="#path3_fill" transform="translate(-187.464 -297.824)" fill="#FFFFFF"/>
<use xlink:href="#path4_fill" transform="translate(-187.464 -297.824)" fill="#FFFFFF"/>
<use xlink:href="#path5_fill" transform="translate(-187.464 -297.824)" fill="#FFFFFF"/>
<use xlink:href="#path6_fill" transform="translate(-187.464 -297.824)" fill="#FFFFFF"/>
<use xlink:href="#path7_fill" transform="translate(-187.464 -297.824)" fill="#FFFFFF"/>
<use xlink:href="#path8_fill" transform="translate(-187.464 -297.824)" fill="#FFFFFF"/>
<use xlink:href="#path9_fill" transform="translate(-187.464 -297.824)" fill="#FFFFFF"/>
<use xlink:href="#path10_fill" transform="translate(-187.464 -297.824)" fill="#FFFFFF"/>
<use xlink:href="#path11_fill" transform="translate(-187.464 -297.824)" fill="#FFFFFF"/>
<use xlink:href="#path12_fill" transform="translate(-187.464 -297.824)" fill="#FFFFFF"/>
<use xlink:href="#path13_fill" transform="translate(-187.464 -297.824)" fill="#FFFFFF"/>
<use xlink:href="#path14_fill" transform="translate(-187.464 -297.824)" fill="#FFFFFF"/>
<use xlink:href="#path15_fill" transform="translate(-187.464 -297.824)" fill="#FFFFFF"/>
</g>
</g>
<defs>
<path id="path0_fill" d="M 0 0.504L 11.736 0.504C 17.64 0.504 21.96 1.728 24.696 4.176C 27.48 6.576 28.872 10.512 28.872 15.984C 28.872 23.472 26.472 28.008 21.672 29.592L 29.952 58.824L 22.104 58.824L 14.472 31.464L 8.136 31.464L 8.136 58.824L 0 58.824L 0 0.504ZM 11.232 25.632C 14.736 25.632 17.232 24.936 18.72 23.544C 20.256 22.152 21.024 19.632 21.024 15.984C 21.024 13.584 20.76 11.712 20.232 10.368C 19.704 8.976 18.768 7.968 17.424 7.344C 16.08 6.672 14.184 6.336 11.736 6.336L 8.136 6.336L 8.136 25.632L 11.232 25.632Z"/>
<path id="path1_fill" d="M 52.2399 59.472C 46.5279 59.472 42.4239 57.864 39.9279 54.648C 37.4799 51.384 36.2559 46.68 36.2559 40.536L 36.2559 18.432C 36.2559 12.384 37.5039 7.8 39.9999 4.68C 42.4959 1.56 46.5759 0 52.2399 0C 57.9039 0 61.9599 1.584 64.4079 4.752C 66.9039 7.872 68.1519 12.432 68.1519 18.432L 68.1519 40.608C 68.1519 46.656 66.9039 51.312 64.4079 54.576C 61.9119 57.84 57.8559 59.472 52.2399 59.472ZM 52.2399 53.064C 55.2639 53.064 57.3039 52.176 58.3599 50.4C 59.4159 48.624 59.9439 45.936 59.9439 42.336L 59.9439 16.776C 59.9439 13.224 59.4159 10.608 58.3599 8.928C 57.3039 7.2 55.2639 6.336 52.2399 6.336C 49.1679 6.336 47.1039 7.2 46.0479 8.928C 44.9919 10.608 44.4639 13.224 44.4639 16.776L 44.4639 42.336C 44.4639 45.936 44.9919 48.624 46.0479 50.4C 47.1039 52.176 49.1679 53.064 52.2399 53.064Z"/>
<path id="path2_fill" d="M 76.1484 0.504L 89.5404 0.504C 94.8204 0.504 98.7324 1.704 101.276 4.104C 103.82 6.456 105.092 10.128 105.092 15.12C 105.092 22.56 102.308 26.664 96.7404 27.432C 100.196 28.248 102.716 29.88 104.3 32.328C 105.884 34.728 106.676 38.016 106.676 42.192C 106.676 47.424 105.428 51.504 102.932 54.432C 100.484 57.36 96.7404 58.824 91.7004 58.824L 76.1484 58.824L 76.1484 0.504ZM 89.1084 24.84C 92.4684 24.84 94.7964 24.12 96.0924 22.68C 97.3884 21.192 98.0364 18.672 98.0364 15.12C 98.0364 12.528 97.6284 10.632 96.8124 9.432C 96.0444 8.184 94.8684 7.392 93.2844 7.056C 91.7004 6.72 89.3484 6.552 86.2284 6.552L 84.2844 6.552L 84.2844 24.84L 89.1084 24.84ZM 89.7564 52.992C 92.1564 52.992 94.0044 52.632 95.3004 51.912C 96.6444 51.144 97.5804 49.992 98.1084 48.456C 98.6364 46.92 98.9004 44.832 98.9004 42.192C 98.9004 38.448 98.1324 35.664 96.5964 33.84C 95.0604 31.968 92.5644 31.032 89.1084 31.032L 84.2844 31.032L 84.2844 52.992L 89.7564 52.992Z"/>
<path id="path3_fill" d="M 130.359 0.504L 138.495 0.504L 138.495 52.992L 153.399 52.992L 153.399 58.824L 130.359 58.824L 130.359 0.504Z"/>
<path id="path4_fill" d="M 159.409 0.504L 167.401 0.504L 167.401 58.824L 159.409 58.824L 159.409 0.504Z"/>
<path id="path5_fill" d="M 176.836 0.504L 182.38 0.504L 198.94 39.24L 198.94 0.504L 205.708 0.504L 205.708 58.824L 200.524 58.824L 183.748 19.008L 183.748 58.824L 176.836 58.824L 176.836 0.504Z"/>
<path id="path6_fill" d="M 214.875 0.504L 227.547 0.504C 233.835 0.504 238.275 1.944 240.867 4.824C 243.507 7.704 244.827 12.192 244.827 18.288L 244.827 39.744C 244.827 46.176 243.531 50.976 240.939 54.144C 238.395 57.264 234.147 58.824 228.195 58.824L 214.875 58.824L 214.875 0.504ZM 227.619 52.992C 230.451 52.992 232.491 52.44 233.739 51.336C 235.035 50.232 235.827 48.744 236.115 46.872C 236.451 44.952 236.619 42.072 236.619 38.232L 236.619 19.296C 236.619 15.984 236.403 13.464 235.971 11.736C 235.587 9.96 234.747 8.664 233.451 7.848C 232.155 6.984 230.139 6.552 227.403 6.552L 223.011 6.552L 223.011 52.992L 227.619 52.992Z"/>
<path id="path7_fill" d="M 266.596 59.472C 261.7 59.472 257.956 57.96 255.364 54.936C 252.82 51.912 251.404 47.76 251.116 42.48L 258.316 40.536C 258.556 44.28 259.276 47.304 260.476 49.608C 261.724 51.912 263.764 53.064 266.596 53.064C 268.708 53.064 270.292 52.488 271.348 51.336C 272.452 50.136 273.004 48.432 273.004 46.224C 273.004 43.872 272.5 41.928 271.492 40.392C 270.484 38.808 268.876 37.008 266.668 34.992L 256.876 26.352C 254.908 24.576 253.468 22.704 252.556 20.736C 251.692 18.72 251.26 16.296 251.26 13.464C 251.26 9.144 252.508 5.832 255.004 3.528C 257.5 1.176 260.932 0 265.3 0C 269.86 0 273.268 1.224 275.524 3.672C 277.78 6.12 279.148 9.912 279.628 15.048L 272.716 16.92C 272.476 13.608 271.852 11.016 270.844 9.144C 269.836 7.224 268.06 6.264 265.516 6.264C 260.86 6.264 258.532 8.4 258.532 12.672C 258.532 14.4 258.82 15.84 259.396 16.992C 259.972 18.096 260.956 19.296 262.348 20.592L 272.212 29.232C 274.756 31.584 276.772 34.08 278.26 36.72C 279.796 39.312 280.564 42.264 280.564 45.576C 280.564 49.848 279.268 53.232 276.676 55.728C 274.084 58.224 270.724 59.472 266.596 59.472Z"/>
<path id="path8_fill" d="M 286.875 0.504L 309.483 0.504L 309.483 6.552L 295.011 6.552L 295.011 25.848L 306.747 25.848L 306.747 31.608L 295.011 31.608L 295.011 52.992L 309.627 52.992L 309.627 58.824L 286.875 58.824L 286.875 0.504Z"/>
<path id="path9_fill" d="M 325.123 38.232L 312.523 0.504L 320.083 0.504L 329.011 28.656L 337.795 0.504L 345.427 0.504L 332.899 38.232L 332.899 58.824L 325.123 58.824L 325.123 38.232Z"/>
<path id="path10_fill" d="M 229.914 73.564L 238.056 73.564C 241.521 73.564 243.975 74.53 245.416 76.462C 246.857 78.3633 247.578 80.97 247.578 84.282L 247.578 99.738C 247.578 103.234 246.873 105.963 245.462 107.926C 244.082 109.858 241.69 110.824 238.286 110.824L 229.914 110.824L 229.914 73.564ZM 238.148 108.846C 240.049 108.846 241.506 108.447 242.518 107.65C 243.53 106.822 244.205 105.733 244.542 104.384C 244.879 103.035 245.048 101.394 245.048 99.462L 245.048 84.466C 245.048 81.4913 244.542 79.268 243.53 77.796C 242.549 76.324 240.724 75.588 238.056 75.588L 232.398 75.588L 232.398 108.846L 238.148 108.846Z"/>
<path id="path11_fill" d="M 253.632 73.564L 266.512 73.564L 266.512 75.588L 256.162 75.588L 256.162 90.538L 264.672 90.538L 264.672 92.47L 256.162 92.47L 256.162 108.846L 266.65 108.846L 266.65 110.824L 253.632 110.824L 253.632 73.564Z"/>
<path id="path12_fill" d="M 279.188 111.284C 273.699 111.284 270.709 108.064 270.218 101.624L 272.38 100.934C 272.748 103.694 273.408 105.764 274.358 107.144C 275.34 108.524 276.965 109.214 279.234 109.214C 283.19 109.214 285.168 107.221 285.168 103.234C 285.168 101.701 284.785 100.305 284.018 99.048C 283.252 97.7907 282.025 96.3187 280.338 94.632L 273.53 87.87C 271.353 85.6927 270.264 83.3313 270.264 80.786C 270.264 78.3633 271 76.4927 272.472 75.174C 273.975 73.8553 275.968 73.1807 278.452 73.15C 281.12 73.15 283.175 73.8707 284.616 75.312C 286.058 76.7227 286.886 79.1147 287.1 82.488L 284.984 82.994C 284.77 80.326 284.187 78.3633 283.236 77.106C 282.286 75.818 280.783 75.174 278.728 75.174C 276.858 75.174 275.355 75.6187 274.22 76.508C 273.116 77.3973 272.564 78.762 272.564 80.602C 272.564 81.5833 272.764 82.5187 273.162 83.408C 273.592 84.2973 274.297 85.248 275.278 86.26L 281.994 92.884C 283.712 94.5707 285.061 96.242 286.042 97.898C 287.024 99.554 287.514 101.287 287.514 103.096C 287.514 105.795 286.763 107.834 285.26 109.214C 283.758 110.594 281.734 111.284 279.188 111.284Z"/>
<path id="path13_fill" d="M 292.581 73.564L 295.065 73.564L 295.065 110.824L 292.581 110.824L 292.581 73.564Z"/>
<path id="path14_fill" d="M 310.156 111.33C 306.844 111.33 304.528 110.349 303.21 108.386C 301.891 106.423 301.232 103.633 301.232 100.014L 301.232 84.19C 301.232 80.6327 301.891 77.9033 303.21 76.002C 304.559 74.1007 306.92 73.15 310.294 73.15C 313.391 73.15 315.599 74.0547 316.918 75.864C 318.236 77.6733 318.896 80.3107 318.896 83.776L 318.896 85.064L 316.504 85.064L 316.504 83.638C 316.504 80.7553 316.044 78.6393 315.124 77.29C 314.234 75.91 312.624 75.22 310.294 75.22C 307.748 75.22 306.016 75.9713 305.096 77.474C 304.206 78.9767 303.762 81.1847 303.762 84.098L 303.762 100.336C 303.762 103.28 304.237 105.503 305.188 107.006C 306.138 108.509 307.856 109.26 310.34 109.26C 312.67 109.26 314.296 108.539 315.216 107.098C 316.136 105.626 316.596 103.418 316.596 100.474L 316.596 95L 310.662 95L 310.662 93.068L 318.942 93.068L 318.942 110.824L 317.332 110.824L 316.964 106.638C 316.473 108.171 315.676 109.337 314.572 110.134C 313.498 110.931 312.026 111.33 310.156 111.33Z"/>
<path id="path15_fill" d="M 325.463 73.564L 327.441 73.564L 340.091 105.028L 340.091 73.564L 342.299 73.564L 342.299 110.824L 340.321 110.824L 327.671 79.314L 327.671 110.824L 325.463 110.824L 325.463 73.564Z"/>
</defs>
</svg>
