<svg width="256" height="256" viewBox="0 0 256 256" version="1.1" xmlns="http://www.w3.org/2000/svg" xmlns:xlink="http://www.w3.org/1999/xlink">
<title>wordpress-icon</title>
<desc>Created using Figma</desc>
<g id="Canvas" transform="translate(418 421)">
<clipPath id="clip-0" clip-rule="evenodd">
<path d="M -418 -421L -162 -421L -162 -165L -418 -165L -418 -421Z" fill="#FFFFFF"/>
</clipPath>
<g id="wordpress-icon" clip-path="url(#clip-0)">
<g id="Group">
<g id="Vector">
<use xlink:href="#path0_fill" transform="translate(-410 -413)" fill="#4F4F4F"/>
</g>
</g>
</g>
</g>
<defs>
<path id="path0_fill" d="M 17.0568 119.997C 17.0568 160.744 40.7362 195.958 75.0731 212.645L 25.9691 78.1019C 20.2574 90.9047 17.0568 105.073 17.0568 119.997ZM 189.49 114.802C 189.49 102.08 184.92 93.269 181 86.4112C 175.782 77.9315 170.891 70.7505 170.891 62.2708C 170.891 52.8077 178.068 43.9989 188.177 43.9989C 188.634 43.9989 189.067 44.0557 189.511 44.0812C 171.197 27.302 146.797 17.0574 119.997 17.0574C 84.0344 17.0574 52.3947 35.5094 33.9883 63.4578C 36.4034 63.5303 38.6795 63.5812 40.6128 63.5812C 51.38 63.5812 68.047 62.2747 68.047 62.2747C 73.5962 61.9476 74.2504 70.0982 68.7071 70.7544C 68.7071 70.7544 63.1306 71.4106 56.9252 71.7358L 94.4118 183.241L 116.939 115.676L 100.901 71.7318C 95.3579 71.4067 90.1065 70.7505 90.1065 70.7505C 84.5593 70.4253 85.2096 61.9436 90.7568 62.2708C 90.7568 62.2708 107.757 63.5773 117.872 63.5773C 128.637 63.5773 145.306 62.2708 145.306 62.2708C 150.859 61.9436 151.511 70.0943 145.966 70.7505C 145.966 70.7505 140.378 71.4067 134.184 71.7318L 171.385 182.393L 181.653 148.081C 186.103 133.842 189.49 123.615 189.49 114.802ZM 121.803 129.002L 90.9174 218.753C 100.139 221.464 109.892 222.947 119.997 222.947C 131.985 222.947 143.481 220.874 154.181 217.111C 153.905 216.671 153.654 216.202 153.449 215.693L 121.803 129.002ZM 210.323 70.6075C 210.766 73.8865 211.016 77.4065 211.016 81.1929C 211.016 91.6393 209.065 103.382 203.189 118.066L 171.745 208.98C 202.349 191.133 222.933 157.977 222.933 119.999C 222.935 102.101 218.364 85.2712 210.323 70.6075ZM 119.997 0C 53.8324 0 0 53.8302 0 119.997C 0 186.172 53.8324 240 119.997 240C 186.16 240 240 186.172 240 119.997C 239.998 53.8302 186.16 0 119.997 0ZM 119.997 234.5C 56.8665 234.5 5.50213 183.134 5.50213 119.997C 5.50213 56.8644 56.8645 5.50231 119.997 5.50231C 183.126 5.50231 234.486 56.8644 234.486 119.997C 234.486 183.134 183.126 234.5 119.997 234.5Z"/>
</defs>
</svg>
